<?xml version="1.0" encoding="UTF-8" standalone="no"?>
<svg width="659px" height="1020px" viewBox="0 0 659 1020" version="1.1" xmlns="http://www.w3.org/2000/svg" xmlns:xlink="http://www.w3.org/1999/xlink" xmlns:sketch="http://www.bohemiancoding.com/sketch/ns">
    <!-- Generator: Sketch 3.4.2 (15855) - http://www.bohemiancoding.com/sketch -->
    <title>ic-wht-houndify-mic</title>
    <desc>Created with Sketch.</desc>
    <defs></defs>
    <g id="Hound-app" stroke="none" stroke-width="1" fill="none" fill-rule="evenodd" sketch:type="MSPage">
        <g id="Vector-file" sketch:type="MSArtboardGroup" transform="translate(-192.000000, -4.000000)" fill="#FFFFFF">
            <g id="ic-wht-houndify-mic" sketch:type="MSLayerGroup" transform="translate(188.321839, 0.000000)">
                <g id="screen" transform="translate(155.151515, 0.000000)" sketch:type="MSShapeGroup">
                    <path d="M2.343843,518.754486 L2.21027778,518.754486 C4.88158213,611.516668 82.9103821,686.632304 178.169095,686.632304 C273.401095,686.632304 351.456608,611.516668 354.1012,518.754486 L353.967634,518.754486 L353.967634,172.761759 L354.1012,172.761759 C351.456608,79.9995769 273.401095,4.8839405 178.169095,4.8839405 C82.9103821,4.8839405 4.88158213,79.9995769 2.21027778,172.761759 L2.343843,172.761759 L2.343843,518.754486 Z" id="Fill-1"></path>
                </g>
                <g id="base" transform="translate(0.000000, 496.484848)" sketch:type="MSShapeGroup">
                    <path d="M583.903227,9.57967515 C582.069553,75.5718206 555.114539,137.264718 508.041497,183.527796 C460.837478,229.922754 398.754501,255.454487 333.239934,255.454487 C267.672976,255.454487 205.616195,229.922754 158.412176,183.527796 C111.339134,137.264718 84.3841201,75.5718206 82.576641,9.79068121 L4.09537591,10.3973236 C6.29578521,88.5486933 36.394241,163.904233 88.811134,222.405663 C140.887488,280.537833 211.536343,318.439796 287.791004,329.17473 L293.711153,330.018754 L293.711153,448.41953 L178.373032,448.41953 L178.399227,527.520427 L488.133032,527.520427 L488.106836,448.41953 L372.611543,448.41953 L372.794911,329.992378 L378.71506,329.148354 C454.96972,318.413421 525.592381,280.511457 577.642539,222.405663 C630.085627,163.877857 660.184083,88.4959418 662.384492,10.1599418 L583.903227,9.57967515 Z" id="Fill-4"></path>
                </g>
            </g>
        </g>
    </g>
</svg>